<?xml version="1.0" encoding="utf-8"?>
<!DOCTYPE svg PUBLIC "-//W3C//DTD SVG 1.1 Tiny//EN" "http://www.w3.org/Graphics/SVG/1.1/DTD/svg11-tiny.dtd">
<svg version="1.1" baseProfile="tiny" id="Layer_1" xmlns="http://www.w3.org/2000/svg" xmlns:xlink="http://www.w3.org/1999/xlink"
	 x="0px" y="0px" width="200px" height="200px" viewBox="0 0 200 200" xml:space="preserve">
<g>
	<path id="rb1_3_" d="M27.873,193.766V135.24c0-23.674,19.191-42.865,42.866-42.865v37.508c0,35.279,28.603,63.883,63.883,63.883
		c35.281,0,63.884-28.604,63.884-63.883c0-35.283-28.603-63.885-63.884-63.885H97.116V6.234L70.738,32.612l0.001,33.387
		c-38.242,0-69.244,31-69.244,69.241v58.525H27.873z"/>
	<g id="gem_1_">
		<path fill="#6156FF" d="M98.383,139.588c-0.827-3.096-1.267-6.348-1.267-9.705V92.375l37.506,37.508L98.383,139.588z"/>
		<path fill="#867DFF" d="M134.622,129.883l-9.709,36.236c-12.913-3.449-23.081-13.617-26.53-26.531L134.622,129.883z"/>
		<path fill="#6156FF" d="M134.622,129.883l26.521,26.52c-6.787,6.787-16.163,10.988-26.521,10.988
			c-3.357,0-6.612-0.443-9.709-1.271L134.622,129.883z"/>
		<path fill="#3C2EFF" d="M170.859,120.172c0.828,3.098,1.27,6.352,1.27,9.711c0,10.357-4.198,19.732-10.986,26.52l-26.521-26.52
			L170.859,120.172z"/>
		<path fill="#2212FF" d="M134.622,129.883l9.71-36.239c12.91,3.451,23.077,13.616,26.527,26.528L134.622,129.883z"/>
		<path fill="#3C2EFF" d="M97.116,92.375h37.506c3.357,0,6.613,0.442,9.71,1.269l-9.71,36.239L97.116,92.375z"/>
		<polygon fill="#AAA4FF" points="114.715,135.215 120.049,115.309 139.956,109.975 154.529,124.547 149.195,144.455 
			129.288,149.789 		"/>
	</g>
</g>
</svg>
