<?xml version="1.0" encoding="utf-8"?>
<!-- Generator: Adobe Illustrator 14.0.0, SVG Export Plug-In . SVG Version: 6.00 Build 43363)  -->
<!DOCTYPE svg PUBLIC "-//W3C//DTD SVG 1.1 Tiny//EN" "http://www.w3.org/Graphics/SVG/1.1/DTD/svg11-tiny.dtd">
<svg version="1.1" baseProfile="tiny" id="Layer_1" xmlns="http://www.w3.org/2000/svg" xmlns:xlink="http://www.w3.org/1999/xlink"
	 x="0px" y="0px" width="1003px" height="411px" viewBox="0 0 1003 411" xml:space="preserve">
<g id="Version_3">
	<path id="rb1_5_" d="M708.579,319.846v-97.051c0-39.256,31.824-71.08,71.082-71.08v62.195c0,58.505,47.431,105.936,105.936,105.936
		s105.936-47.431,105.936-105.936c0-58.506-47.431-105.934-105.936-105.934h-62.195V8.871l-43.742,43.742l0.002,55.364
		c-63.415,0-114.823,51.407-114.823,114.82v97.049H708.579z"/>
	<g id="gem_3_">
		<path fill="#6156FF" d="M825.502,230.006c-1.37-5.136-2.101-10.528-2.101-16.096v-62.195l62.195,62.195L825.502,230.006z"/>
		<path fill="#867DFF" d="M885.597,213.91l-16.101,60.091c-21.413-5.722-38.273-22.582-43.994-43.995L885.597,213.91z"/>
		<path fill="#6156FF" d="M885.597,213.91l43.979,43.979c-11.256,11.255-26.804,18.219-43.979,18.219
			c-5.567,0-10.966-0.734-16.101-2.106L885.597,213.91z"/>
		<path fill="#3C2EFF" d="M945.688,197.808c1.372,5.136,2.104,10.533,2.104,16.103c0,17.177-6.962,32.723-18.217,43.979
			l-43.979-43.979L945.688,197.808z"/>
		<path fill="#2212FF" d="M885.597,213.91l16.101-60.091c21.409,5.722,38.269,22.579,43.99,43.988L885.597,213.91z"/>
		<path fill="#3C2EFF" d="M823.401,151.715h62.195c5.567,0,10.966,0.732,16.101,2.104l-16.101,60.091L823.401,151.715z"/>
		<polygon fill="#AAA4FF" points="852.586,222.754 861.431,189.743 894.442,180.899 918.607,205.063 909.763,238.074 
			876.751,246.922 		"/>
	</g>
	<g id="e4">
		<path id="e_3_" d="M348.588,232.191l36.219-36.219l-25.632-25.632c-15.828-15.828-37.694-25.617-61.848-25.617
			c-48.307,0-87.467,39.16-87.467,87.468c0,48.309,39.16,87.469,87.467,87.469c48.31,0,87.47-39.16,87.47-87.469H348.588
			c0,28.312-22.95,51.261-51.261,51.261c-28.31,0-51.259-22.949-51.259-51.261c0-28.31,22.95-51.26,51.259-51.26
			c14.152,0,26.965,5.734,36.241,15.006l-36.241,36.253H348.588z"/>
		<path d="M372.281,297.306l15.481,28.236l-19.366,15.468l-24.144-21.356c-9.761,5.231-20.361,8.823-31.359,10.581l-6.295,31.599
			l-24.776-0.601l-4.767-31.863c-5.345-1.124-10.667-2.675-15.922-4.732c-5.254-2.057-10.216-4.532-14.9-7.336l-25.135,20.16
			l-18.595-16.386l16.83-27.473c-6.882-8.756-12.226-18.589-15.84-29.058l-32.227-0.711l-3.712-24.504l30.533-10.22
			c0.336-10.83,2.461-21.779,6.557-32.455L180.421,175.4l12.905-21.159l29.953,11.797c7.477-8.367,16.251-15.322,25.888-20.662
			l-4.892-31.836l23.488-7.912l15.375,28.315c10.819-1.575,21.989-1.367,33.092,0.799l16.725-27.543l23.077,9.036l-6.42,31.577
			c9.623,5.947,17.962,13.379,24.836,21.878l30.516-10.35l11.869,21.759l-25.205,20.053c3.449,10.463,5.17,21.526,4.978,32.744
			l30.003,11.675l-4.894,24.298l-32.214-0.84C385.258,279.646,379.385,289.128,372.281,297.306z M392.677,272.279l32.002,0.835
			l5.914-29.387l-29.802-11.6c-0.01-10.434-1.602-20.717-4.645-30.522l25.042-19.924l-14.358-26.315l-30.269,10.264
			c-6.559-7.822-14.336-14.736-23.188-20.425l6.369-31.324l-27.912-10.929l-16.591,27.322c-10.363-1.832-20.768-2.038-30.895-0.748
			l-15.251-28.086l-28.408,9.571l4.857,31.63c-8.892,5.134-17.042,11.6-24.135,19.257l-29.755-11.718l-15.609,25.591l24.062,21.114
			c-3.626,9.973-5.626,20.157-6.12,30.259l-30.325,10.148l4.491,29.638l31.996,0.708c3.54,9.696,8.5,18.854,14.766,27.121
			l-16.701,27.26l22.49,19.816l24.941-20.003c4.417,2.54,9.074,4.791,13.964,6.705c4.888,1.914,9.835,3.423,14.806,4.559
			l4.729,31.618l29.966,0.723l6.247-31.354c10.214-1.816,20.073-5.171,29.255-9.885l23.97,21.203l23.419-18.709l-15.374-28.042
			C383.121,290.898,388.567,282.066,392.677,272.279z"/>
		<path d="M326.795,232.191c0,16.273-13.193,29.467-29.468,29.467c-16.274,0-29.467-13.193-29.467-29.467
			c0-16.274,13.193-29.468,29.467-29.468C313.602,202.724,326.795,215.917,326.795,232.191z M297.327,205.624
			c-14.672,0-26.567,11.896-26.567,26.567s11.895,26.566,26.567,26.566c14.672,0,26.567-11.895,26.567-26.566
			S312,205.624,297.327,205.624z"/>
		<path d="M311.653,232.191c0,7.912-6.413,14.325-14.326,14.325c-7.91,0-14.325-6.413-14.325-14.325
			c0-7.911,6.415-14.326,14.325-14.326C305.24,217.865,311.653,224.28,311.653,232.191z M297.327,219.478
			c-7.022,0-12.713,5.691-12.713,12.714c0,7.021,5.691,12.713,12.713,12.713c7.021,0,12.713-5.692,12.713-12.713
			C310.041,225.169,304.348,219.478,297.327,219.478z"/>
	</g>
	<path id="m_3_" d="M407.079,231.682c0-48.309,39.16-87.469,87.468-87.469c13.615,0,26.5,3.111,37.988,8.658
		c11.489-5.547,24.375-8.658,37.989-8.658c48.308,0,87.47,39.16,87.47,87.469v88.164h-36.209v-88.164
		c0-28.312-22.949-51.261-51.261-51.261c-15.064,0-28.61,6.501-37.989,16.847c-9.378-10.346-22.922-16.847-37.988-16.847
		c-28.31,0-51.259,22.95-51.259,51.261v88.164h-36.208V231.682z"/>
	<g id="g_6_">
		<path id="g_7_" d="M99.627,282.941c-28.311,0-51.26-22.95-51.26-51.262c0-28.31,22.95-51.259,51.26-51.259
			c28.312,0,51.261,22.95,51.261,51.259v51.262H99.627z M187.783,231.68c0-48.686-39.467-88.155-88.156-88.155
			c-48.688,0-88.156,39.469-88.156,88.155c0,48.688,39.468,88.157,88.156,88.157h51.26l0.001,21.445
			c0,14.158-5.739,26.974-15.015,36.25l26.09,26.092c15.953-15.955,25.819-37.995,25.819-62.342V231.68z"/>
		<rect id="square_3_" x="150.887" y="282.941" fill="#FF4A2F" width="36.896" height="36.896"/>
	</g>
</g>
</svg>
