<?xml version="1.0" encoding="utf-8"?>
<!-- Generator: Adobe Illustrator 14.0.0, SVG Export Plug-In . SVG Version: 6.00 Build 43363)  -->
<!DOCTYPE svg PUBLIC "-//W3C//DTD SVG 1.1 Tiny//EN" "http://www.w3.org/Graphics/SVG/1.1/DTD/svg11-tiny.dtd">
<svg version="1.1" baseProfile="tiny" id="Layer_1" xmlns="http://www.w3.org/2000/svg" xmlns:xlink="http://www.w3.org/1999/xlink"
	 x="0px" y="0px" width="1021px" height="411px" viewBox="0 0 1021 411" xml:space="preserve">
<g id="Version_2b">
	<path id="rb1" d="M727.579,321.447v-98.756c0-39.945,32.384-72.329,72.331-72.329v63.289c0,59.531,48.266,107.796,107.796,107.796
		c59.533,0,107.796-48.265,107.796-107.796c0-59.534-48.263-107.796-107.796-107.796H844.42V5.011l-44.51,44.51v56.336
		c-64.529,0-116.841,52.31-116.841,116.836v98.754H727.579z"/>
	<g id="gem">
		<path fill="#6156FF" d="M846.555,230.029c-1.394-5.226-2.137-10.713-2.137-16.378v-63.289l63.286,63.289L846.555,230.029z"/>
		<path fill="#867DFF" d="M907.704,213.651l-16.382,61.146c-21.789-5.823-38.945-22.979-44.768-44.769L907.704,213.651z"/>
		<path fill="#6156FF" d="M907.704,213.651l44.751,44.75c-11.453,11.453-27.273,18.539-44.751,18.539
			c-5.665,0-11.156-0.747-16.382-2.143L907.704,213.651z"/>
		<path fill="#3C2EFF" d="M968.851,197.266c1.396,5.226,2.144,10.718,2.144,16.386c0,17.478-7.086,33.297-18.539,44.75
			l-44.751-44.75L968.851,197.266z"/>
		<path fill="#2212FF" d="M907.704,213.651l16.386-61.147c21.785,5.823,38.938,22.976,44.761,44.761L907.704,213.651z"/>
		<path fill="#3C2EFF" d="M844.418,150.363h63.286c5.665,0,11.16,0.746,16.386,2.142l-16.386,61.147L844.418,150.363z"/>
		<polygon fill="#AAA4FF" points="874.113,222.65 883.116,189.059 916.707,180.06 941.295,204.648 932.296,238.239 898.705,247.242 
					"/>
	</g>
	<path id="e2b" d="M416.691,281.119l-22.85-21.763c2.838-8.699,4.392-17.978,4.392-27.624h-36.844
		c0,28.809-23.353,52.162-52.16,52.162c-28.809,0-52.161-23.354-52.161-52.162c0-28.807,23.353-52.159,52.161-52.159
		c14.399,0,27.437,5.834,36.876,15.27l-36.876,36.889h52.16l36.857-36.854l-18.645-18.644l13.726-27.655l-16.803-14.101
		l-25.396,18.723c-7.289-3.897-15.181-6.809-23.504-8.558l-7.423-30.669h-21.934l-7.421,30.666
		c-8.324,1.749-16.216,4.66-23.505,8.556l-25.4-18.724l-16.802,14.099l14.04,28.291c-5.128,6.538-9.36,13.808-12.514,21.633
		l-31.499,1.985l-3.808,21.602l28.943,12.646c0.283,8.57,1.771,16.827,4.311,24.616l-22.85,21.767l10.968,18.994l30.284-8.909
		c5.582,6.211,12.029,11.625,19.145,16.069l-3.515,31.374l20.613,7.501l17.471-26.291c4.087,0.572,8.257,0.89,12.503,0.89
		c4.241,0,8.406-0.314,12.49-0.89l17.475,26.295l20.611-7.501l-3.517-31.371c7.118-4.443,13.565-9.856,19.148-16.068l30.288,8.912
		L416.691,281.119z"/>
	<path id="m" d="M420.784,231.734c0-49.158,39.848-89.005,89.004-89.005c13.854,0,26.966,3.166,38.656,8.812
		c11.69-5.646,24.805-8.812,38.655-8.812c49.156,0,89.006,39.848,89.006,89.005v89.713h-36.844v-89.713
		c0-28.809-23.354-52.161-52.162-52.161c-15.327,0-29.112,6.613-38.655,17.143c-9.544-10.53-23.325-17.143-38.656-17.143
		c-28.808,0-52.16,23.353-52.16,52.161v89.713h-36.844V231.734z"/>
	<g id="g_9_">
		<path id="g" d="M97.207,283.895c-28.807,0-52.16-23.354-52.16-52.162c0-28.807,23.353-52.159,52.16-52.159
			c28.807,0,52.16,23.353,52.16,52.159v52.162H97.207z M186.913,231.732c0-49.543-40.162-89.704-89.706-89.704
			S7.501,182.189,7.501,231.732c0,49.544,40.162,89.708,89.706,89.708h52.16v21.821c0,14.406-5.836,27.447-15.275,36.887
			l26.547,26.55c16.233-16.235,26.274-38.663,26.274-63.437V231.732z"/>
		<rect id="square" x="149.367" y="283.895" fill="#FF4A2F" width="37.546" height="37.546"/>
	</g>
</g>
</svg>
