<?xml version="1.0" encoding="utf-8"?>
<!DOCTYPE svg PUBLIC "-//W3C//DTD SVG 1.1 Tiny//EN" "http://www.w3.org/Graphics/SVG/1.1/DTD/svg11-tiny.dtd">
<svg version="1.1" baseProfile="tiny" id="Layer_1" xmlns="http://www.w3.org/2000/svg" xmlns:xlink="http://www.w3.org/1999/xlink"
	 x="0px" y="0px" width="200px" height="200px" viewBox="0 0 200 200" xml:space="preserve">
<g id="gem_1_">
	<path fill="#6156FF" d="M5.3,124.798C3.147,116.851,2,108.502,2,99.883V3.593l97.692,96.291L5.3,124.798z"/>
	<path fill="#867DFF" d="M99.692,99.883l-25.289,93.026c-33.634-8.854-60.119-34.958-69.103-68.111L99.692,99.883z"/>
	<path fill="#6156FF" d="M99.692,99.883l69.077,68.082c-17.678,17.424-42.1,28.209-69.077,28.209
		c-8.745,0-17.223-1.139-25.289-3.265L99.692,99.883z"/>
	<path fill="#3C2EFF" d="M194.08,74.953c2.156,7.952,3.307,16.306,3.307,24.93c0,26.589-10.936,50.657-28.617,68.082L99.692,99.883
		L194.08,74.953z"/>
	<path fill="#2212FF" d="M99.692,99.883l25.292-93.033c33.627,8.859,60.109,34.955,69.096,68.103L99.692,99.883z"/>
	<path fill="#3C2EFF" d="M2,3.593h97.692c8.745,0,17.226,1.134,25.292,3.258L99.692,99.883L2,3.593z"/>
	<polygon fill="#AAA4FF" points="47.84,113.571 61.734,62.468 113.586,48.774 151.545,86.185 137.65,137.293 85.799,150.986 	"/>
</g>
</svg>
