<?xml version="1.0" encoding="UTF-8" standalone="no"?>
<!-- Created with Inkscape (http://www.inkscape.org/) -->

<svg
   xmlns:dc="http://purl.org/dc/elements/1.1/"
   xmlns:cc="http://creativecommons.org/ns#"
   xmlns:rdf="http://www.w3.org/1999/02/22-rdf-syntax-ns#"
   xmlns:svg="http://www.w3.org/2000/svg"
   xmlns="http://www.w3.org/2000/svg"
   version="1.2"
   width="1052.3622"
   height="744.09448"
   viewBox="0 0 1052.3622 744.09448"
   id="Layer_1"
   xml:space="preserve"><metadata
   id="metadata3618"><rdf:RDF><cc:Work
       rdf:about=""><dc:format>image/svg+xml</dc:format><dc:type
         rdf:resource="http://purl.org/dc/dcmitype/StillImage" /><dc:title></dc:title></cc:Work></rdf:RDF></metadata><defs
   id="defs3616" />
<g
   transform="matrix(0.96849033,0,0,0.96849033,31.002883,55.535439)"
   id="Version_2b">
	<path
   d="m 727.579,321.447 v -98.756 c 0,-39.945 32.384,-72.329 72.331,-72.329 v 63.289 c 0,59.531 48.266,107.796 107.796,107.796 59.533,0 107.796,-48.265 107.796,-107.796 0,-59.534 -48.263,-107.796 -107.796,-107.796 H 844.42 V 5.011 l -44.51,44.51 v 56.336 c -64.529,0 -116.841,52.31 -116.841,116.836 v 98.754 h 44.51 z"
   id="rb1" />
	<g
   id="gem">
		<path
   d="m 846.555,230.029 c -1.394,-5.226 -2.137,-10.713 -2.137,-16.378 v -63.289 l 63.286,63.289 -61.149,16.378 z"
   id="path3595"
   style="fill:#6156ff" />
		<path
   d="m 907.704,213.651 -16.382,61.146 c -21.789,-5.823 -38.945,-22.979 -44.768,-44.769 l 61.15,-16.377 z"
   id="path3597"
   style="fill:#867dff" />
		<path
   d="m 907.704,213.651 44.751,44.75 c -11.453,11.453 -27.273,18.539 -44.751,18.539 -5.665,0 -11.156,-0.747 -16.382,-2.143 l 16.382,-61.146 z"
   id="path3599"
   style="fill:#6156ff" />
		<path
   d="m 968.851,197.266 c 1.396,5.226 2.144,10.718 2.144,16.386 0,17.478 -7.086,33.297 -18.539,44.75 l -44.751,-44.75 61.146,-16.386 z"
   id="path3601"
   style="fill:#3c2eff" />
		<path
   d="m 907.704,213.651 16.386,-61.147 c 21.785,5.823 38.938,22.976 44.761,44.761 l -61.147,16.386 z"
   id="path3603"
   style="fill:#2212ff" />
		<path
   d="m 844.418,150.363 h 63.286 c 5.665,0 11.16,0.746 16.386,2.142 l -16.386,61.147 -63.286,-63.289 z"
   id="path3605"
   style="fill:#3c2eff" />
		<path
   d="m 883.116,189.059 33.591,-8.999 24.588,24.588 -8.999,33.591 -33.591,9.003 -24.592,-24.592 z"
   id="polygon3607"
   style="fill:#aaa4ff" />
	</g>
	<path
   d="m 416.691,281.119 -22.85,-21.763 c 2.838,-8.699 4.392,-17.978 4.392,-27.624 h -36.844 c 0,28.809 -23.353,52.162 -52.16,52.162 -28.809,0 -52.161,-23.354 -52.161,-52.162 0,-28.807 23.353,-52.159 52.161,-52.159 14.399,0 27.437,5.834 36.876,15.27 l -36.876,36.889 h 52.16 l 36.857,-36.854 -18.645,-18.644 13.726,-27.655 -16.803,-14.101 -25.396,18.723 c -7.289,-3.897 -15.181,-6.809 -23.504,-8.558 l -7.423,-30.669 h -21.934 l -7.421,30.666 c -8.324,1.749 -16.216,4.66 -23.505,8.556 l -25.4,-18.724 -16.802,14.099 14.04,28.291 c -5.128,6.538 -9.36,13.808 -12.514,21.633 l -31.499,1.985 -3.808,21.602 28.943,12.646 c 0.283,8.57 1.771,16.827 4.311,24.616 l -22.85,21.767 10.968,18.994 30.284,-8.909 c 5.582,6.211 12.029,11.625 19.145,16.069 l -3.515,31.374 20.613,7.501 17.471,-26.291 c 4.087,0.572 8.257,0.89 12.503,0.89 4.241,0 8.406,-0.314 12.49,-0.89 l 17.475,26.295 20.611,-7.501 -3.517,-31.371 c 7.118,-4.443 13.565,-9.856 19.148,-16.068 l 30.288,8.912 10.965,-18.997 z"
   id="e2b" />
	<path
   d="m 420.784,231.734 c 0,-49.158 39.848,-89.005 89.004,-89.005 13.854,0 26.966,3.166 38.656,8.812 11.69,-5.646 24.805,-8.812 38.655,-8.812 49.156,0 89.006,39.848 89.006,89.005 v 89.713 h -36.844 v -89.713 c 0,-28.809 -23.354,-52.161 -52.162,-52.161 -15.327,0 -29.112,6.613 -38.655,17.143 -9.544,-10.53 -23.325,-17.143 -38.656,-17.143 -28.808,0 -52.16,23.353 -52.16,52.161 v 89.713 h -36.844 v -89.713 z"
   id="m" />
	<g
   id="g_9_">
		<path
   d="m 97.207,283.895 c -28.807,0 -52.16,-23.354 -52.16,-52.162 0,-28.807 23.353,-52.159 52.16,-52.159 28.807,0 52.16,23.353 52.16,52.159 v 52.162 h -52.16 z m 89.706,-52.163 c 0,-49.543 -40.162,-89.704 -89.706,-89.704 -49.544,0 -89.706,40.161 -89.706,89.704 0,49.544 40.162,89.708 89.706,89.708 h 52.16 v 21.821 c 0,14.406 -5.836,27.447 -15.275,36.887 l 26.547,26.55 c 16.233,-16.235 26.274,-38.663 26.274,-63.437 V 231.732 z"
   id="g" />
		<path
   d="m 149.367,283.89499 37.54601,0 0,37.546 -37.54601,0 z"
   id="square"
   style="fill:#ff4a2f" />
	</g>
</g>
<g
   transform="translate(92.76828,-10.118752)"
   id="flowRoot3620"
   style="font-size:40px;font-style:normal;font-weight:normal;line-height:125%;letter-spacing:0px;word-spacing:0px;fill:#000000;fill-opacity:1;stroke:none;font-family:Sans"><path
     d="m 548.61621,478.99313 c 0.17576,0 0.32224,0.0732 0.43945,0.21973 0.14646,0.14648 0.21971,0.32226 0.21973,0.52734 -2e-5,0.17578 -0.0733,0.32227 -0.21973,0.43945 -0.1465,0.11719 -0.30764,0.17578 -0.48339,0.17578 -2.90042,0.41016 -4.59963,0.64454 -5.09766,0.70313 -0.46877,0.0879 -1.084,0.0439 -1.8457,-0.13184 -0.73244,-0.14648 -1.45021,-0.16113 -2.15332,-0.0439 -0.67385,0.14648 -1.30373,0.19043 -1.88965,0.13183 -0.58595,-0.0293 -1.12794,0.0147 -1.62598,0.13184 -0.46876,0.14648 -1.31837,0.17578 -2.54883,0.0879 -1.20118,-0.0586 -2.3877,0.10254 -3.55957,0.4834 -0.52735,0.17578 -0.9375,0.26367 -1.23047,0.26367 -0.35156,0 -0.52734,-0.13184 -0.52734,-0.39551 0,-0.17578 0.13183,-0.36621 0.39551,-0.57129 0.26367,-0.20507 0.57128,-0.35156 0.92285,-0.43945 0.93749,-0.20508 1.56738,-1.23047 1.88965,-3.07617 0.32226,-1.875 0.43944,-5.20019 0.35156,-9.97559 -0.0879,-4.77537 -0.16114,-9.19919 -0.21973,-13.27148 -0.0293,-4.10153 -0.24903,-8.34958 -0.65918,-12.74414 l -0.52734,-5.49317 c -0.0586,-0.73237 -0.39551,-1.15718 -1.01074,-1.27441 l -1.27442,-0.26367 c -1.43554,-0.29292 -3.07617,-0.33687 -4.92187,-0.13184 -1.875,0.17583 -2.8125,5e-5 -2.8125,-0.52734 0,-0.20503 0.13184,-0.38081 0.39551,-0.52735 0.23438,-0.17573 0.62988,-0.26362 1.18652,-0.26367 0.55664,-0.0292 1.52344,-0.0878 2.90039,-0.17578 1.34766,-0.0878 4.51172,-0.14643 9.49219,-0.17578 5.00975,-0.0586 7.95408,-0.24897 8.83301,-0.57129 0.35154,-0.11714 0.61521,-0.17573 0.79101,-0.17578 0.11717,5e-5 0.17576,0.0293 0.17578,0.0879 -2e-5,0.0879 -0.0586,0.21978 -0.17578,0.39551 -0.32228,0.52739 -0.90822,0.83501 -1.75781,0.92285 -0.82033,0.11723 -1.34767,0.62993 -1.58203,1.53809 -0.23439,0.87895 -0.45412,1.59672 -0.65918,2.15332 -0.20509,0.52738 -0.35158,1.09867 -0.43945,1.71386 -0.0879,0.61528 -0.24904,1.91899 -0.4834,3.91114 -0.20509,1.99222 -0.27834,3.14945 -0.21973,3.47168 0.0879,0.293 0.13182,4.86331 0.13184,13.71093 0.0293,8.84767 0.26365,14.13575 0.70312,15.86426 0.43944,1.72852 0.95213,2.68067 1.53809,2.85645 0.61522,0.14648 1.17186,0.23437 1.66992,0.26367 0.49803,0 2.46092,0.0586 5.88867,0.17578"
     id="path3648"
     style="font-size:90px;font-variant:normal;font-weight:500;font-stretch:normal;word-spacing:12.18000317px;font-family:Eadui;-inkscape-font-specification:Eadui Medium" /><path
     d="m 594.53906,451.21969 c -0.14653,5.44925 -0.48344,8.17385 -1.01074,8.17383 -0.32231,2e-5 -0.57134,-0.2783 -0.74707,-0.83496 -0.14653,-0.55662 -0.27837,-1.39158 -0.39551,-2.50488 l -14.85351,0.0879 c -9.72659,0.0879 -15.36623,0.60061 -16.91895,1.53808 -0.76173,0.46878 -1.21583,1.46487 -1.3623,2.98828 -0.1172,1.52346 0.13182,3.45705 0.74707,5.80079 0.61522,2.31446 1.1865,3.85255 1.71386,4.61425 0.52733,0.76173 1.36229,1.71388 2.50489,2.85645 1.17185,1.11329 2.63669,2.09473 4.39453,2.94433 1.75779,0.82032 4.02829,1.23048 6.81152,1.23047 3.54489,10e-6 6.28415,-0.49804 8.21777,-1.49414 1.96286,-0.99609 3.76461,-2.10937 5.40528,-3.33984 1.64058,-1.23046 2.63667,-2.34374 2.98828,-3.33984 0.38081,-0.99609 0.90816,-2.00683 1.58203,-3.03223 0.70308,-1.05467 1.20112,-1.58202 1.49414,-1.58203 0.32222,1e-5 0.48335,0.27833 0.4834,0.83496 -5e-5,0.49806 -0.13189,1.42091 -0.39551,2.76855 -0.26372,1.34767 -0.4395,2.98829 -0.52734,4.92188 -0.0586,1.9336 -0.27837,3.44238 -0.65918,4.52637 -0.35161,1.05468 -0.55669,1.8164 -0.61524,2.28515 -0.0293,0.46875 -0.13188,0.70313 -0.30761,0.70313 -0.11724,0 -0.29302,-0.0879 -0.52735,-0.26368 -0.20512,-0.14648 -0.32231,-0.62988 -0.35156,-1.45019 -5e-5,-0.82031 0.0439,-1.71386 0.13184,-2.68066 -1.17192,0.43945 -2.35845,0.86426 -3.55957,1.27441 -1.20122,0.41016 -2.66606,0.9082 -4.39453,1.49414 -1.69926,0.55664 -3.89652,1.06934 -6.5918,1.53809 -2.66605,0.46875 -4.81936,0.70312 -6.45996,0.70312 -1.2012,0 -2.51956,-0.14648 -3.95508,-0.43945 -1.40627,-0.29297 -3.09084,-0.80567 -5.05371,-1.53809 -1.96291,-0.73242 -3.33986,-1.37695 -4.13086,-1.93359 -0.76173,-0.58594 -1.68458,-1.34765 -2.76856,-2.28516 -1.05469,-0.93749 -1.88965,-1.69921 -2.50488,-2.28515 -0.61524,-0.58593 -1.37696,-1.55273 -2.28515,-2.90039 -0.87892,-1.34765 -1.5088,-3.13476 -1.88965,-5.36133 -0.38087,-2.22655 -0.57129,-4.29198 -0.57129,-6.19629 0,-1.58201 0.0879,-3.55955 0.26367,-5.93262 0.20507,-2.37302 0.80566,-4.86325 1.80176,-7.4707 1.02538,-2.60739 2.2705,-4.59957 3.73535,-5.97656 1.46483,-1.40621 3.16405,-2.60738 5.09766,-3.60352 1.96287,-0.99605 4.14549,-1.9189 6.54785,-2.76856 2.40232,-0.87885 5.88864,-1.31831 10.45898,-1.31835 4.57028,4e-5 8.0566,0.23442 10.45899,0.70312 2.43159,0.4688 3.70601,0.52739 3.82324,0.17578 0.11714,-0.38081 0.43941,-0.9228 0.96679,-1.62597 0.5273,-0.70308 0.87886,-1.05464 1.05469,-1.05469 0.17574,5e-5 0.26363,0.30767 0.26367,0.92285 -4e-5,0.58599 -0.044,1.36235 -0.13183,2.3291 -0.0879,0.93755 -0.13188,2.09477 -0.13184,3.47168 -4e-5,1.377 0.10249,2.56352 0.30762,3.55957 0.23433,0.96684 0.35151,1.64066 0.35156,2.02149 -5e-5,0.38089 -0.10258,0.57132 -0.30762,0.57128 -0.4102,4e-5 -0.68852,-0.5273 -0.83496,-1.58203 -0.14653,-1.05464 -2.29984,-2.35835 -6.45996,-3.91113 -4.13089,-1.55269 -8.05667,-2.32906 -11.77734,-2.3291 -1.43557,4e-5 -3.0176,0.17583 -4.74609,0.52734 -1.72854,0.32231 -3.36917,0.99614 -4.92188,2.02149 -1.52345,1.02543 -2.5049,2.53422 -2.94434,4.52636 l -1.27441,5.40528 c -0.58595,2.49026 -0.68849,4.07229 -0.30762,4.74609 0.38085,0.64456 1.56737,0.87893 3.55957,0.70313 2.02147,-0.20505 7.28025,-0.49802 15.77637,-0.87891 8.49605,-0.38083 13.11031,-1.36227 13.84277,-2.94434 0.5566,-1.20114 1.21578,-1.80172 1.97754,-1.80175 0.76167,-0.0293 0.93745,0.27835 0.52735,0.92285 -0.38091,0.61526 -0.58599,1.53811 -0.61524,2.76855"
     id="path3650"
     style="font-size:90px;font-variant:normal;font-weight:500;font-stretch:normal;word-spacing:12.18000317px;font-family:Eadui;-inkscape-font-specification:Eadui Medium" /><path
     d="m 651.41145,462.3818 c -3e-5,1.1133 -0.0147,2.32912 -0.0439,3.64746 l -0.26367,8.39356 c 0.29294,0.38086 1.02536,1.12793 2.19726,2.24121 1.20115,1.08399 2.24119,1.62598 3.12012,1.62597 0.99607,10e-6 1.84567,-0.19042 2.54883,-0.57128 0.70309,-0.38086 1.05465,-0.54199 1.05469,-0.4834 -4e-5,0.0586 -0.20511,0.32227 -0.61524,0.79101 -0.41018,0.46876 -1.58206,1.15723 -3.51562,2.06543 -1.93362,0.90821 -3.70608,1.36231 -5.31739,1.36231 -1.61134,0 -2.87111,-0.71778 -3.77929,-2.15332 -0.87893,-1.43555 -1.40627,-2.15332 -1.58203,-2.15332 -0.43947,0 -1.53811,0.65918 -3.2959,1.97754 -1.75783,1.28906 -3.23732,1.93359 -4.43848,1.93359 -1.17188,0 -2.46094,-0.33691 -3.86719,-1.01074 -1.37695,-0.67383 -2.51953,-1.52344 -3.42773,-2.54883 -0.87891,-1.02539 -1.31836,-1.93359 -1.31836,-2.72461 0,-0.79101 0.30762,-1.68456 0.92285,-2.68066 0.64453,-1.02539 1.30371,-1.8457 1.97754,-2.46094 0.67382,-0.61522 1.72851,-1.20116 3.16406,-1.75781 1.46484,-0.55663 3.01757,-1.15722 4.65821,-1.80176 1.6699,-0.64452 3.01756,-1.09862 4.04297,-1.36231 1.02537,-0.29295 1.6406,-0.62986 1.8457,-1.01074 0.23436,-0.41014 0.35154,-1.01072 0.35156,-1.80176 -2e-5,-1.17185 -0.1758,-2.37302 -0.52734,-3.60351 -0.32229,-1.23045 -0.82033,-2.50486 -1.49414,-3.82324 -0.64455,-1.31834 -1.21584,-2.124 -1.71387,-2.417 -0.49806,-0.32223 -1.09865,-0.48337 -1.80176,-0.4834 -0.41017,3e-5 -0.98146,0.13187 -1.71387,0.39551 -0.73243,0.2637 -1.88965,0.80569 -3.47168,1.62598 -1.58203,0.79104 -2.37305,0.99612 -2.37304,0.61523 -10e-6,-0.20505 1.80175,-1.24509 5.40527,-3.12011 3.6328,-1.90427 6.21092,-2.85642 7.73438,-2.85645 1.02537,3e-5 2.03611,0.65921 3.03222,1.97754 1.02537,1.28909 1.6992,2.91507 2.02149,4.87793 0.32224,1.93362 0.48337,4.36526 0.4834,7.29492 m -5.7129,6.81153 c -1e-5,-1.37695 -0.0879,-2.13866 -0.26367,-2.28516 -0.1758,-0.17577 -0.36623,-0.26366 -0.57129,-0.26367 -0.20509,1e-5 -0.42482,1e-5 -0.65918,0 -0.49806,1e-5 -1.83106,0.29298 -3.99902,0.8789 -2.13868,0.58595 -3.64747,1.21584 -4.52637,1.88965 -0.84961,0.67384 -1.27442,1.5381 -1.27441,2.59278 -1e-5,1.17188 0.38085,2.18262 1.14258,3.03222 0.76171,0.84962 1.7578,1.55274 2.98828,2.10938 1.25975,0.52734 2.09471,0.79102 2.50488,0.79101 0.43944,10e-6 1.01073,-0.20507 1.71387,-0.61523 0.70311,-0.43945 1.36229,-1.52343 1.97754,-3.25196 0.64451,-1.7578 0.96678,-3.38377 0.96679,-4.87792"
     id="path3652"
     style="font-size:90px;font-variant:normal;font-weight:500;font-stretch:normal;word-spacing:12.18000317px;font-family:Eadui;-inkscape-font-specification:Eadui Medium" /><path
     d="m 690.08333,456.93258 c -3e-5,2.57815 -0.30765,5.81545 -0.92285,9.71192 l -0.83496,5.31738 c -0.26371,1.66993 -0.39554,2.81251 -0.39551,3.42773 -3e-5,0.61524 0.0732,1.08399 0.21972,1.40625 0.14646,0.32227 0.33689,0.58595 0.57129,0.79102 0.23435,0.17578 0.74704,0.39551 1.53809,0.65918 0.79098,0.23438 1.18649,0.5127 1.18652,0.83496 -3e-5,0.32227 -0.43948,0.67383 -1.31836,1.05469 -1.81643,0.79101 -4.04299,1.18652 -6.67968,1.18652 -0.84964,0 -1.36233,-0.13183 -1.53809,-0.39551 -0.14651,-0.23437 -0.19045,-0.70312 -0.13184,-1.40625 0.41014,-3.72069 0.80564,-6.48925 1.18653,-8.30566 0.41013,-1.8164 0.61521,-3.54491 0.61523,-5.18555 -2e-5,-1.64061 -0.0293,-3.48631 -0.0879,-5.53711 -0.0293,-2.08005 -0.29299,-3.67673 -0.79101,-4.79004 -0.46878,-1.14255 -1.2012,-2.15329 -2.19727,-3.03222 -0.99612,-0.87888 -1.77248,-1.31833 -2.3291,-1.31836 -0.52737,3e-5 -1.86037,0.67386 -3.99902,2.02148 -2.13869,1.34768 -3.51564,2.53421 -4.13086,3.55957 -0.61525,0.99612 -1.18654,3.85256 -1.71387,8.56934 -0.49806,4.71681 -0.74708,7.64649 -0.74707,8.78906 -10e-6,1.14258 0.13182,1.97754 0.39551,2.50488 0.29295,0.52735 0.77635,0.90821 1.45019,1.14258 0.67382,0.23438 1.05468,0.38086 1.14258,0.43946 0.11717,0.0293 0.21971,0.0879 0.30762,0.17578 0.0879,0.0879 0.0586,0.21973 -0.0879,0.3955 -1.20119,1.14258 -3.29591,1.875 -6.28418,2.19727 -1.0547,0.11719 -1.84571,0.17578 -2.37305,0.17578 -0.49805,0 -0.82032,-0.0879 -0.9668,-0.26367 -0.11719,-0.14648 -0.0732,-0.80566 0.13184,-1.97754 1.25976,-8.43749 1.88964,-14.80955 1.88965,-19.11621 -10e-6,-2.08006 -0.5713,-3.16404 -1.71387,-3.25195 -1.14258,-0.11717 -2.09473,-0.54197 -2.85645,-1.27442 -0.73242,-0.76169 -1.09863,-1.45017 -1.09863,-2.06543 0,-0.20505 0.0586,-0.46872 0.17578,-0.79101 0.14649,-0.35154 1.06934,-1.08396 2.76856,-2.19727 1.69921,-1.11325 3.33983,-1.94821 4.92187,-2.50488 1.58202,-0.58591 2.49023,-0.87887 2.72461,-0.87891 0.43944,4e-5 0.83495,0.3809 1.18653,1.14258 0.38084,0.73245 0.57127,1.77249 0.57128,3.12012 -10e-6,1.31839 0.17577,1.97756 0.52735,1.97754 0.35155,2e-5 1.53807,-0.61521 3.55957,-1.84571 2.05076,-1.23043 3.73533,-2.0361 5.05371,-2.41699 1.31834,-0.41012 2.78318,-0.6152 4.39453,-0.61523 1.14255,3e-5 2.19724,0.19046 3.16406,0.57129 0.99607,0.35159 1.83103,1.52346 2.50489,3.51562 0.67379,1.99221 1.01071,3.48635 1.01074,4.48242"
     id="path3654"
     style="font-size:90px;font-variant:normal;font-weight:500;font-stretch:normal;word-spacing:12.18000317px;font-family:Eadui;-inkscape-font-specification:Eadui Medium" /><path
     d="m 719.61458,447.87985 c 1.28903,3e-5 2.59274,0.30765 3.91113,0.92285 1.31833,0.58597 2.47555,0.98148 3.47168,1.18652 0.99606,0.20511 1.49411,0.52738 1.49414,0.9668 -3e-5,0.3223 -0.93753,1.24515 -2.8125,2.76856 -1.84573,1.52346 -2.92972,2.5049 -3.25195,2.94433 -0.293,0.41018 -1.09866,2.0508 -2.41699,4.92188 -1.31839,2.84181 -2.70999,5.7129 -4.17481,8.61328 -1.43557,2.8711 -2.56349,5.2002 -3.38379,6.9873 -0.82033,1.75782 -1.74318,3.67676 -2.76855,5.75684 -1.02541,2.10937 -2.79787,4.89257 -5.31739,8.34961 -2.51953,3.45701 -4.58496,5.96189 -6.19628,7.51465 -1.58204,1.55271 -3.53028,2.97361 -5.84473,4.26269 -2.31445,1.28904 -4.07226,1.93357 -5.27344,1.93359 -0.76171,-2e-5 -1.7871,-0.6006 -3.07617,-1.80175 -1.28905,-1.2012 -1.93358,-2.09475 -1.93359,-2.68067 10e-6,-0.99611 0.89356,-2.35841 2.68066,-4.08691 1.75782,-1.69923 3.03223,-2.54884 3.82324,-2.54883 1.0254,-10e-6 1.99219,0.68846 2.90039,2.06543 0.90821,1.37694 1.46485,2.25584 1.66992,2.63672 0.17579,0.41014 0.65918,0.61522 1.4502,0.61523 0.79101,-10e-6 1.59668,-0.38087 2.41699,-1.14257 0.82031,-0.76174 1.65527,-1.71389 2.50489,-2.85645 0.8496,-1.11329 2.29979,-3.55958 4.35058,-7.33887 2.08007,-3.7793 3.12011,-6.1084 3.12012,-6.9873 -1e-5,-0.87891 -0.21974,-2.06543 -0.65918,-3.55957 -0.43947,-1.49414 -1.24513,-3.74999 -2.41699,-6.76758 -1.14259,-3.04686 -2.06544,-5.33202 -2.76856,-6.85547 -0.70313,-1.52342 -1.58204,-3.14939 -2.63672,-4.87793 -1.05469,-1.75779 -1.91895,-3.10544 -2.59277,-4.04297 -0.67383,-0.96677 -1.05469,-1.52341 -1.14258,-1.66992 -0.14648,-0.23435 -0.21973,-0.49802 -0.21973,-0.79101 0,-0.49802 0.67383,-1.33298 2.02149,-2.50489 1.34765,-1.20114 2.2998,-1.80172 2.85644,-1.80176 0.55664,4e-5 1.06933,0.24906 1.53809,0.74707 0.93749,0.96683 1.88964,2.35843 2.85645,4.17481 0.99608,1.81643 2.2119,4.4678 3.64746,7.9541 1.46483,3.48635 2.46092,5.96193 2.98828,7.42676 0.52732,1.43556 0.87889,2.15333 1.05469,2.15332 0.17576,1e-5 0.74705,-1.06933 1.71386,-3.20801 0.96678,-2.16795 2.00682,-4.26268 3.12012,-6.28418 1.14255,-2.05076 1.86033,-3.28123 2.15332,-3.6914 0.29294,-0.41014 0.43943,-0.791 0.43945,-1.14258 -2e-5,-0.49802 -0.26369,-0.80564 -0.79101,-0.92285 -1.34768,-0.29295 -2.60745,-0.7617 -3.7793,-1.40625 -1.1426,-0.6738 -1.69924,-1.24509 -1.66992,-1.71387 0.0586,-0.61521 0.98142,-1.46482 2.76855,-2.54883 1.81639,-1.11325 3.20799,-1.66989 4.17481,-1.66992"
     id="path3656"
     style="font-size:90px;font-variant:normal;font-weight:500;font-stretch:normal;word-spacing:12.18000317px;font-family:Eadui;-inkscape-font-specification:Eadui Medium" /><path
     d="m 782.93977,451.43942 c -5e-5,1.2305 -1.45024,4.9512 -4.35058,11.16211 -4.04302,8.64259 -6.79692,14.45801 -8.26172,17.44629 -1.05473,2.13867 -1.7725,3.208 -2.15332,3.20801 -0.61527,-10e-6 -1.36234,-0.83497 -2.24121,-2.50489 -1.40629,-2.57812 -2.94437,-5.58105 -4.61426,-9.00879 -1.52347,-3.10545 -2.68069,-5.30272 -3.47168,-6.59179 -0.32229,-0.49803 -0.60061,-0.74706 -0.83496,-0.74707 -0.2637,10e-6 -0.52737,0.26368 -0.79102,0.79101 l -7.07519,14.85352 c -1.05471,2.13867 -1.77248,3.208 -2.15332,3.20801 -0.64455,-10e-6 -1.39162,-0.83497 -2.24121,-2.50489 -1.78713,-3.6621 -3.76466,-7.58788 -5.93262,-11.77734 -2.16798,-4.18944 -4.68751,-8.36424 -7.55859,-12.52442 -0.58594,-0.82028 -0.87891,-1.74313 -0.87891,-2.76855 0,-1.25974 0.82031,-2.32907 2.46094,-3.20801 1.64062,-0.90817 3.35448,-1.36227 5.1416,-1.3623 1.08397,3e-5 1.64061,1.11331 1.66992,3.33984 0.0586,2.81253 0.92284,6.10842 2.59277,9.8877 1.61132,3.69142 3.01757,6.29884 4.21875,7.82226 1.20116,1.52345 1.94823,2.28517 2.24122,2.28516 0.32224,10e-6 0.87888,-0.54199 1.66992,-1.62598 0.82029,-1.11327 1.81638,-2.87108 2.98828,-5.27344 0.7031,-1.40623 1.24509,-2.59275 1.62597,-3.55957 0.26365,-0.6738 0.19041,-1.34763 -0.21972,-2.02148 l -2.3291,-3.51563 c -0.58596,-0.82028 -0.87893,-1.74313 -0.87891,-2.76855 -2e-5,-1.25974 0.82029,-2.32907 2.46094,-3.20801 1.6406,-0.90817 3.35446,-1.36227 5.1416,-1.3623 1.02536,3e-5 1.582,1.11331 1.66992,3.33984 0.0879,2.92971 0.93747,6.24026 2.54883,9.93164 1.64059,3.66213 3.06149,6.2549 4.26269,7.77832 1.20114,1.52345 1.94821,2.28517 2.24122,2.28516 0.32222,10e-6 0.87886,-0.54199 1.66992,-1.62598 0.79097,-1.11327 1.77241,-2.85643 2.94433,-5.22949 1.20113,-2.40233 1.93355,-4.14549 2.19727,-5.22949 0.26362,-0.99608 0.23433,-1.56736 -0.0879,-1.71387 l -1.14258,-0.52734 c -2.60747,-1.11326 -3.91118,-2.05076 -3.91113,-2.8125 -5e-5,-0.84959 0.80562,-2.18259 2.41699,-3.99903 1.61128,-1.81637 2.95894,-2.72457 4.04297,-2.72461 1.75776,4e-5 3.01752,0.24906 3.7793,0.74707 0.76166,0.49808 1.14252,1.20121 1.14257,2.10938"
     id="path3658"
     style="font-size:90px;font-variant:normal;font-weight:500;font-stretch:normal;word-spacing:12.18000317px;font-family:Eadui;-inkscape-font-specification:Eadui Medium" /><path
     d="m 819.5462,463.61227 c -3e-5,2.13869 -0.36624,4.04298 -1.09863,5.71289 -0.90823,2.08009 -2.29983,4.16016 -4.1748,6.24024 -2.25589,2.51953 -4.33597,4.30664 -6.24024,5.36132 l -2.68066,1.49414 c -0.14651,0.0879 -0.26369,0.13184 -0.35156,0.13184 -0.11721,0 -0.21975,-0.0439 -0.30762,-0.13184 -0.11721,-0.17578 -0.044,-0.38086 0.21972,-0.61523 l 1.9336,-1.58203 c 0.55662,-0.46875 1.31834,-1.3623 2.28515,-2.68067 1.17185,-1.64062 2.09471,-3.53026 2.76856,-5.66894 0.6738,-2.13866 1.01071,-4.33593 1.01074,-6.5918 -3e-5,-2.54881 -0.46878,-4.79002 -1.40625,-6.72363 -0.90823,-1.93357 -1.86037,-3.38376 -2.85644,-4.35059 -0.99612,-0.99606 -1.97756,-1.77243 -2.94434,-2.3291 -0.96682,-0.55661 -1.90432,-0.83493 -2.8125,-0.83496 -1.64064,3e-5 -3.17872,0.7764 -4.61426,2.3291 -1.40626,1.52347 -2.34376,2.81253 -2.8125,3.86719 -0.46876,1.05471 -0.84962,1.84572 -1.14258,2.37305 -0.49805,0.96681 -0.86426,4.23341 -1.09863,9.7998 l -0.35156,8.30567 3.51562,0.26367 c 0.67382,0.0586 1.01073,0.17578 1.01075,0.35156 -2e-5,0.17578 -0.30763,0.42481 -0.92286,0.74707 l -0.92285,0.4834 c -1.72852,0.9082 -3.58887,1.4209 -5.58105,1.53808 l -1.49414,0.0879 c -0.70313,0.0293 -1.06934,-0.41016 -1.09864,-1.31836 -0.17578,-5.03906 -0.26367,-9.14062 -0.26367,-12.30469 0,-3.16405 0.14649,-6.97264 0.43946,-11.42578 0.29296,-4.4824 0.43945,-7.77829 0.43945,-9.8877 0,-2.10934 -0.11719,-4.64351 -0.35156,-7.60254 -0.20508,-2.98823 -0.58594,-5.37593 -1.14258,-7.16308 -0.55664,-1.81636 -0.83496,-2.97358 -0.83496,-3.47168 0,-0.52729 0.0293,-0.87886 0.0879,-1.05469 0.0586,-0.20502 0.24902,-0.4687 0.57129,-0.79102 0.32226,-0.32221 1.34765,-0.90814 3.07617,-1.75781 1.75781,-0.87885 3.47167,-1.3183 5.1416,-1.31836 0.8789,6e-5 1.31835,0.41022 1.31836,1.23047 -10e-6,1.90435 -0.14649,4.40923 -0.43945,7.51465 -0.29298,3.07622 -0.67384,6.66508 -1.14258,10.7666 -0.46876,4.1016 -0.70313,6.81156 -0.70313,8.12988 0,1.2891 0.13183,2.06546 0.39551,2.32911 l 0.0879,0 c 0.49804,2e-5 2.46093,-0.89353 5.88867,-2.68067 3.42772,-1.78708 6.47459,-2.68063 9.14063,-2.68066 1.75779,3e-5 3.26657,0.46878 4.52637,1.40625 1.25973,0.93753 2.38766,2.38772 3.38379,4.35058 0.99606,1.96292 1.66988,3.91116 2.02148,5.84473 0.35153,1.90432 0.52731,3.33986 0.52734,4.30664"
     id="path3660"
     style="font-size:90px;font-variant:normal;font-weight:500;font-stretch:normal;word-spacing:12.18000317px;font-family:Eadui;-inkscape-font-specification:Eadui Medium" /><path
     d="m 875.35675,452.36227 c -5e-5,0.58597 -0.35161,1.02542 -1.05469,1.31836 -0.67388,0.2637 -1.8604,0.55667 -3.55957,0.87891 -1.69926,0.32229 -2.88579,0.48342 -3.55957,0.48339 -0.64457,3e-5 -1.40629,-0.23434 -2.28515,-0.70312 -0.87895,-0.46872 -1.45024,-0.7031 -1.71387,-0.70313 -0.3809,3e-5 -0.8936,0.27835 -1.53809,0.83497 -0.64457,0.55666 -1.39164,1.5674 -2.24121,3.03222 -0.82035,1.43557 -1.37699,3.55959 -1.66992,6.37207 -0.26371,2.78322 -0.43949,5.37599 -0.52734,7.77832 -0.0586,2.37306 -0.0879,4.04298 -0.0879,5.00977 -4e-5,0.9375 0.20504,1.61133 0.61523,2.02148 0.41012,0.41016 0.46871,0.80567 0.17578,1.18653 -0.293,0.38086 -1.2891,0.95214 -2.98828,1.71386 -1.69925,0.79102 -2.73929,1.18652 -3.12012,1.18653 -0.38089,-10e-6 -0.64456,-0.0586 -0.79101,-0.17578 -0.11722,-0.0879 -0.17581,-0.64454 -0.17578,-1.66993 l 1.3623,-20.083 c -3e-5,-2.16795 -0.35159,-3.25193 -1.05469,-3.25196 -0.43948,3e-5 -0.92288,-0.23435 -1.45019,-0.70312 -0.49808,-0.46873 -1.28909,-0.68845 -2.37305,-0.65918 -1.05471,0.0293 -3.91115,0.35158 -8.56933,0.96679 -4.65822,0.58597 -7.45607,1.11331 -8.39356,1.58204 -0.93751,0.43947 -1.4795,0.92287 -1.62598,1.45019 -0.11719,0.49807 -0.17578,1.37697 -0.17578,2.63672 0,5.83009 0.41015,9.40431 1.23047,10.72266 1.72851,2.7832 4.71679,4.1748 8.96485,4.1748 4.24802,0 7.11911,-1.28906 8.61328,-3.86719 0.76169,-1.25975 1.42087,-1.88964 1.97754,-1.88964 0.58591,0 0.87887,0.20508 0.8789,0.61523 -3e-5,0.93751 -0.7178,2.06544 -2.15332,3.38379 -3.72072,3.36914 -9.12599,5.05371 -16.21582,5.05371 -1.66993,0 -3.14942,-0.41016 -4.43848,-1.23047 -1.17187,-0.76172 -2.12402,-1.83105 -2.85644,-3.20801 -0.90821,-1.69921 -1.36231,-4.20409 -1.36231,-7.51465 0,-5.71287 0.76172,-9.91697 2.28516,-12.6123 1.52343,-2.72458 3.7207,-4.83396 6.5918,-6.32813 2.87108,-1.4941 5.74217,-2.24117 8.61328,-2.24121 0.43943,4e-5 0.82029,0.0586 1.14258,0.17579 0.32224,0.11722 1.01072,0.80569 2.06543,2.06542 1.08396,1.2598 1.62595,2.05081 1.62597,2.37305 -2e-5,0.3223 0.23435,0.48343 0.70313,0.4834 0.46872,3e-5 1.31833,-0.32224 2.54883,-0.9668 1.25973,-0.6738 2.79782,-1.24508 4.61425,-1.71386 1.84567,-0.49802 2.98825,-0.74704 3.42774,-0.74707 0.43942,3e-5 0.71774,0.0293 0.83496,0.0879 0.43942,0.14651 0.71774,0.83499 0.83496,2.06543 0.11715,1.52346 0.32223,2.28518 0.61523,2.28515 0.29294,3e-5 0.93747,-0.45407 1.9336,-1.3623 1.84566,-1.6406 3.3105,-2.75388 4.39453,-3.33985 1.11324,-0.5859 1.77242,-0.87887 1.97754,-0.8789 0.41011,3e-5 0.82027,0.38089 1.23047,1.14258 0.41011,0.73245 1.12788,1.34768 2.15332,1.8457 1.02534,0.46878 1.77241,0.70315 2.24121,0.70312 0.4687,3e-5 0.96674,-0.0586 1.49414,-0.17578 0.55659,-0.14645 0.83491,-0.0146 0.83496,0.39551 m -45.35156,3.20801 c -10e-6,0.64455 0.29296,0.92287 0.8789,0.83496 2.13867,-0.32224 3.88183,-0.6738 5.2295,-1.05469 1.37693,-0.38083 2.06541,-0.93747 2.06543,-1.66992 -2e-5,-0.32224 -0.23439,-0.83493 -0.70313,-1.53809 -0.46876,-0.70309 -1.06935,-1.05465 -1.80176,-1.05468 -1.64063,3e-5 -3.00294,0.45413 -4.08691,1.3623 -1.0547,0.87893 -1.58204,1.91897 -1.58203,3.12012"
     id="path3662"
     style="font-size:90px;font-variant:normal;font-weight:500;font-stretch:normal;word-spacing:12.18000317px;font-family:Eadui;-inkscape-font-specification:Eadui Medium" /><path
     d="m 899.87823,472.97262 c -2e-5,0.29298 -0.2637,0.84962 -0.79101,1.66992 -0.49807,0.79102 -1.37698,1.75782 -2.63672,2.90039 -1.23049,1.11329 -3.00295,2.00684 -5.31738,2.68067 -2.28518,0.64453 -4.52638,0.9668 -6.72364,0.9668 -2.02149,0 -3.85254,-0.36622 -5.49316,-1.09864 -1.64063,-0.73242 -2.79786,-1.40625 -3.47168,-2.02148 -0.67383,-0.64453 -1.31836,-1.69922 -1.93359,-3.16406 -0.61524,-1.49414 -0.92286,-4.51171 -0.92285,-9.05274 -10e-6,-5.03904 0.93749,-8.77439 2.8125,-11.20605 1.90429,-2.43162 4.17479,-4.10154 6.81152,-5.00977 2.6367,-0.90817 4.77537,-1.36227 6.41601,-1.3623 1.64061,3e-5 2.60741,0.0879 2.9004,0.26367 0.32224,0.17581 0.58591,0.38089 0.79101,0.61523 0.20506,0.23441 0.62986,0.99613 1.27442,2.28516 0.6445,1.25979 1.06931,1.94827 1.27441,2.06543 0.23435,0.11721 1.06931,0.11721 2.50488,0 1.46482,-0.14646 2.19724,0.0293 2.19727,0.52734 -3e-5,0.293 -0.67386,0.6885 -2.02149,1.18653 -1.31838,0.46877 -3.77932,0.89358 -7.38281,1.27441 -3.57423,0.38088 -6.41603,0.76174 -8.52539,1.14258 -2.10938,0.35158 -3.3252,0.77639 -3.64746,1.27441 -0.32227,0.46877 -0.48341,1.61135 -0.4834,3.42774 -1e-5,2.28517 0.27831,4.57032 0.83496,6.85547 0.55663,2.28516 1.8164,4.35059 3.7793,6.19628 1.96288,1.84571 3.99901,2.76856 6.1084,2.76856 1.58201,0 2.94431,-0.20508 4.08691,-0.61524 1.17185,-0.41015 2.124,-0.86425 2.85645,-1.3623 0.73239,-0.49804 1.27439,-1.01074 1.62597,-1.53809 0.38084,-0.52733 0.74705,-1.12792 1.09864,-1.80175 0.38083,-0.70312 0.73239,-1.05468 1.05468,-1.05469 0.35154,-0.0293 0.58591,0.11719 0.70313,0.43945 0.14645,0.29298 0.2197,0.542 0.21972,0.74707 m -12.08496,-19.77539 c -10e-6,-0.6738 -0.35157,-1.31833 -1.05468,-1.93359 -0.67385,-0.61521 -1.47951,-0.92282 -2.417,-0.92285 -0.93751,3e-5 -2.02149,0.43948 -3.25195,1.31836 -1.20118,0.84963 -2.05079,1.96291 -2.54883,3.33984 -0.32227,0.90823 0.32226,1.21584 1.9336,0.92285 1.64061,-0.32224 3.1787,-0.58591 4.61425,-0.79101 1.43554,-0.23435 2.2412,-0.41014 2.417,-0.52735 0.20506,-0.14646 0.3076,-0.61521 0.30761,-1.40625"
     id="path3664"
     style="font-size:90px;font-variant:normal;font-weight:500;font-stretch:normal;word-spacing:12.18000317px;font-family:Eadui;-inkscape-font-specification:Eadui Medium" /><path
     d="m 915.43488,435.09176 c -2e-5,5.44926 -0.45412,12.72953 -1.36231,21.84082 -0.41017,4.51174 -1.30372,8.59865 -2.68066,12.26075 -0.1172,0.17579 -0.41017,0.20508 -0.87891,0.0879 -0.43946,-0.0586 -0.71778,-0.17577 -0.83496,-0.35157 0.0586,-1.81639 -10e-6,-7.54392 -0.17578,-17.18261 -0.1172,-5.41989 -1.34767,-10.50289 -3.69141,-15.24903 l 1.62598,-4.6582 c 0.41015,-1.14253 1.3037,-1.71382 2.68066,-1.71387 3.54491,5e-5 5.31737,1.65532 5.31739,4.96582 m -0.70313,41.3086 c -2e-5,1.14258 -0.26369,2.25586 -0.79102,3.33984 -0.49806,1.05469 -1.25978,1.58203 -2.28515,1.58203 -1.78712,0 -3.16407,-0.61523 -4.13086,-1.8457 -0.96681,-1.23047 -1.4502,-2.25586 -1.4502,-3.07617 0,-0.67383 0.4541,-1.43554 1.36231,-2.28516 0.90819,-0.8789 1.80175,-1.31835 2.68066,-1.31836 1.02538,10e-6 2.05077,0.41016 3.07617,1.23047 1.02538,0.79102 1.53807,1.58204 1.53809,2.37305"
     id="path3666"
     style="font-size:90px;font-variant:normal;font-weight:500;font-stretch:normal;word-spacing:12.18000317px;font-family:Eadui;-inkscape-font-specification:Eadui Medium" /></g></svg>