<?xml version="1.0" encoding="UTF-8" standalone="no"?>
<!-- Created with Inkscape (http://www.inkscape.org/) -->

<svg
   xmlns:dc="http://purl.org/dc/elements/1.1/"
   xmlns:cc="http://creativecommons.org/ns#"
   xmlns:rdf="http://www.w3.org/1999/02/22-rdf-syntax-ns#"
   xmlns:svg="http://www.w3.org/2000/svg"
   xmlns="http://www.w3.org/2000/svg"
   version="1.2"
   width="744.09448"
   height="1052.3622"
   viewBox="0 0 744.09449 1052.3622"
   id="Layer_1"
   xml:space="preserve"><metadata
   id="metadata3618"><rdf:RDF><cc:Work
       rdf:about=""><dc:format>image/svg+xml</dc:format><dc:type
         rdf:resource="http://purl.org/dc/dcmitype/StillImage" /><dc:title></dc:title></cc:Work></rdf:RDF></metadata><defs
   id="defs3616" />
<g
   transform="matrix(0.96849033,0,0,0.96849033,31.002883,363.80314)"
   id="Version_2b">
	<path
   d="m 500.29563,30.383222 v -47.19951 c 0,-19.091341 15.47763,-34.568972 34.56993,-34.568972 v 30.248388 c 0,28.4522869 23.06829,51.520094 51.5201,51.520094 28.45324,0 51.52009,-23.0678071 51.52009,-51.520094 0,-28.453721 -23.06685,-51.520095 -51.52009,-51.520095 H 556.1387 v -48.197453 l -21.27314,21.273142 v 26.925267 c -30.84103,0 -55.84307,25.001078 -55.84307,55.840679 v 47.198554 h 21.27314 z"
   id="rb1" />
	<g
   transform="matrix(0.47794069,0,0,0.47794069,152.55602,-123.24938)"
   id="gem">
		<path
   d="m 846.555,230.029 c -1.394,-5.226 -2.137,-10.713 -2.137,-16.378 v -63.289 l 63.286,63.289 -61.149,16.378 z"
   id="path3595"
   style="fill:#6156ff" />
		<path
   d="m 907.704,213.651 -16.382,61.146 c -21.789,-5.823 -38.945,-22.979 -44.768,-44.769 l 61.15,-16.377 z"
   id="path3597"
   style="fill:#867dff" />
		<path
   d="m 907.704,213.651 44.751,44.75 c -11.453,11.453 -27.273,18.539 -44.751,18.539 -5.665,0 -11.156,-0.747 -16.382,-2.143 l 16.382,-61.146 z"
   id="path3599"
   style="fill:#6156ff" />
		<path
   d="m 968.851,197.266 c 1.396,5.226 2.144,10.718 2.144,16.386 0,17.478 -7.086,33.297 -18.539,44.75 l -44.751,-44.75 61.146,-16.386 z"
   id="path3601"
   style="fill:#3c2eff" />
		<path
   d="m 907.704,213.651 16.386,-61.147 c 21.785,5.823 38.938,22.976 44.761,44.761 l -61.147,16.386 z"
   id="path3603"
   style="fill:#2212ff" />
		<path
   d="m 844.418,150.363 h 63.286 c 5.665,0 11.16,0.746 16.386,2.142 l -16.386,61.147 -63.286,-63.289 z"
   id="path3605"
   style="fill:#3c2eff" />
		<path
   d="m 883.116,189.059 33.591,-8.999 24.588,24.588 -8.999,33.591 -33.591,9.003 -24.592,-24.592 z"
   id="polygon3607"
   style="fill:#aaa4ff" />
	</g>
	
	
	
</g>
</svg>