<?xml version="1.0" encoding="UTF-8" standalone="no"?>
<!-- Created with Inkscape (http://www.inkscape.org/) -->

<svg
   xmlns:dc="http://purl.org/dc/elements/1.1/"
   xmlns:cc="http://creativecommons.org/ns#"
   xmlns:rdf="http://www.w3.org/1999/02/22-rdf-syntax-ns#"
   xmlns:svg="http://www.w3.org/2000/svg"
   xmlns="http://www.w3.org/2000/svg"
   version="1.2"
   width="1052.3622"
   height="744.09448"
   viewBox="0 0 1052.3622 744.09448"
   id="Layer_1"
   xml:space="preserve"><metadata
   id="metadata3618"><rdf:RDF><cc:Work
       rdf:about=""><dc:format>image/svg+xml</dc:format><dc:type
         rdf:resource="http://purl.org/dc/dcmitype/StillImage" /><dc:title></dc:title></cc:Work></rdf:RDF></metadata><defs
   id="defs3616" />
<g
   transform="matrix(0.96849033,0,0,0.96849033,31.002883,55.535439)"
   id="Version_2b">
	<path
   d="m 727.579,321.447 v -98.756 c 0,-39.945 32.384,-72.329 72.331,-72.329 v 63.289 c 0,59.531 48.266,107.796 107.796,107.796 59.533,0 107.796,-48.265 107.796,-107.796 0,-59.534 -48.263,-107.796 -107.796,-107.796 H 844.42 V 5.011 l -44.51,44.51 v 56.336 c -64.529,0 -116.841,52.31 -116.841,116.836 v 98.754 h 44.51 z"
   id="rb1" />
	<g
   id="gem">
		<path
   d="m 846.555,230.029 c -1.394,-5.226 -2.137,-10.713 -2.137,-16.378 v -63.289 l 63.286,63.289 -61.149,16.378 z"
   id="path3595"
   style="fill:#6156ff" />
		<path
   d="m 907.704,213.651 -16.382,61.146 c -21.789,-5.823 -38.945,-22.979 -44.768,-44.769 l 61.15,-16.377 z"
   id="path3597"
   style="fill:#867dff" />
		<path
   d="m 907.704,213.651 44.751,44.75 c -11.453,11.453 -27.273,18.539 -44.751,18.539 -5.665,0 -11.156,-0.747 -16.382,-2.143 l 16.382,-61.146 z"
   id="path3599"
   style="fill:#6156ff" />
		<path
   d="m 968.851,197.266 c 1.396,5.226 2.144,10.718 2.144,16.386 0,17.478 -7.086,33.297 -18.539,44.75 l -44.751,-44.75 61.146,-16.386 z"
   id="path3601"
   style="fill:#3c2eff" />
		<path
   d="m 907.704,213.651 16.386,-61.147 c 21.785,5.823 38.938,22.976 44.761,44.761 l -61.147,16.386 z"
   id="path3603"
   style="fill:#2212ff" />
		<path
   d="m 844.418,150.363 h 63.286 c 5.665,0 11.16,0.746 16.386,2.142 l -16.386,61.147 -63.286,-63.289 z"
   id="path3605"
   style="fill:#3c2eff" />
		<path
   d="m 883.116,189.059 33.591,-8.999 24.588,24.588 -8.999,33.591 -33.591,9.003 -24.592,-24.592 z"
   id="polygon3607"
   style="fill:#aaa4ff" />
	</g>
	<path
   d="m 416.691,281.119 -22.85,-21.763 c 2.838,-8.699 4.392,-17.978 4.392,-27.624 h -36.844 c 0,28.809 -23.353,52.162 -52.16,52.162 -28.809,0 -52.161,-23.354 -52.161,-52.162 0,-28.807 23.353,-52.159 52.161,-52.159 14.399,0 27.437,5.834 36.876,15.27 l -36.876,36.889 h 52.16 l 36.857,-36.854 -18.645,-18.644 13.726,-27.655 -16.803,-14.101 -25.396,18.723 c -7.289,-3.897 -15.181,-6.809 -23.504,-8.558 l -7.423,-30.669 h -21.934 l -7.421,30.666 c -8.324,1.749 -16.216,4.66 -23.505,8.556 l -25.4,-18.724 -16.802,14.099 14.04,28.291 c -5.128,6.538 -9.36,13.808 -12.514,21.633 l -31.499,1.985 -3.808,21.602 28.943,12.646 c 0.283,8.57 1.771,16.827 4.311,24.616 l -22.85,21.767 10.968,18.994 30.284,-8.909 c 5.582,6.211 12.029,11.625 19.145,16.069 l -3.515,31.374 20.613,7.501 17.471,-26.291 c 4.087,0.572 8.257,0.89 12.503,0.89 4.241,0 8.406,-0.314 12.49,-0.89 l 17.475,26.295 20.611,-7.501 -3.517,-31.371 c 7.118,-4.443 13.565,-9.856 19.148,-16.068 l 30.288,8.912 10.965,-18.997 z"
   id="e2b" />
	<path
   d="m 420.784,231.734 c 0,-49.158 39.848,-89.005 89.004,-89.005 13.854,0 26.966,3.166 38.656,8.812 11.69,-5.646 24.805,-8.812 38.655,-8.812 49.156,0 89.006,39.848 89.006,89.005 v 89.713 h -36.844 v -89.713 c 0,-28.809 -23.354,-52.161 -52.162,-52.161 -15.327,0 -29.112,6.613 -38.655,17.143 -9.544,-10.53 -23.325,-17.143 -38.656,-17.143 -28.808,0 -52.16,23.353 -52.16,52.161 v 89.713 h -36.844 v -89.713 z"
   id="m" />
	<g
   id="g_9_">
		<path
   d="m 97.207,283.895 c -28.807,0 -52.16,-23.354 -52.16,-52.162 0,-28.807 23.353,-52.159 52.16,-52.159 28.807,0 52.16,23.353 52.16,52.159 v 52.162 h -52.16 z m 89.706,-52.163 c 0,-49.543 -40.162,-89.704 -89.706,-89.704 -49.544,0 -89.706,40.161 -89.706,89.704 0,49.544 40.162,89.708 89.706,89.708 h 52.16 v 21.821 c 0,14.406 -5.836,27.447 -15.275,36.887 l 26.547,26.55 c 16.233,-16.235 26.274,-38.663 26.274,-63.437 V 231.732 z"
   id="g" />
		<path
   d="m 149.367,283.89499 37.54601,0 0,37.546 -37.54601,0 z"
   id="square"
   style="fill:#ff4a2f" />
	</g>
</g>
</svg>